<?xml version="1.0" encoding="UTF-8"?>
<svg xmlns="http://www.w3.org/2000/svg" xmlns:xlink="http://www.w3.org/1999/xlink" viewBox="0 0 50 50" width="50px" height="50px">
<g id="surface9357911">
<path style=" stroke:none;fill-rule:nonzero;fill:rgb(94.509804%,74.117649%,29.803923%);fill-opacity:1;" d="M 41.25 40.625 C 36.875 43.855469 30.3125 45.832031 25 45.832031 C 17.394531 45.832031 10.625 42.8125 5.417969 38.125 C 5 37.707031 5.417969 37.292969 5.832031 37.5 C 11.457031 40.730469 17.8125 42.605469 24.894531 42.605469 C 29.6875 42.605469 35.730469 41.5625 40.625 39.480469 C 41.355469 39.269531 41.980469 40.105469 41.25 40.625 Z M 42.8125 38.4375 C 42.292969 37.707031 39.167969 38.125 37.8125 38.230469 C 37.394531 38.230469 37.292969 37.917969 37.707031 37.605469 C 40.105469 35.832031 44.167969 36.355469 44.582031 36.980469 C 45 37.605469 44.480469 41.667969 42.1875 43.542969 C 41.875 43.855469 41.457031 43.644531 41.667969 43.332031 C 42.1875 42.082031 43.332031 39.167969 42.8125 38.4375 Z M 42.8125 38.4375 "/>
<path style=" stroke:none;fill-rule:nonzero;fill:rgb(13.725491%,13.725491%,27.843139%);fill-opacity:1;" d="M 38.4375 31.042969 C 37.394531 29.6875 36.355469 28.542969 36.355469 25.9375 L 36.355469 17.292969 C 36.355469 13.644531 36.355469 10.417969 33.75 7.917969 C 31.667969 5.9375 28.230469 5.207031 25.519531 5.207031 C 19.792969 5.207031 14.792969 7.5 13.542969 13.957031 C 13.4375 14.6875 13.957031 15 14.375 15.105469 L 19.6875 15.730469 C 20.207031 15.730469 20.519531 15.207031 20.625 14.6875 C 21.042969 12.5 22.8125 11.457031 24.894531 11.457031 C 26.042969 11.457031 28.230469 12.082031 28.230469 14.582031 L 28.230469 17.707031 C 24.894531 17.707031 21.355469 17.707031 18.4375 18.957031 C 15 20.417969 12.605469 23.4375 12.605469 27.917969 C 12.605469 33.644531 16.144531 36.457031 20.730469 36.457031 C 24.582031 36.457031 26.875 35.519531 29.894531 32.5 C 30.832031 33.957031 31.25 34.792969 33.019531 36.355469 C 33.4375 36.5625 33.957031 36.5625 34.269531 36.25 C 35.3125 35.3125 37.292969 33.542969 38.4375 32.605469 C 38.957031 32.1875 38.855469 31.5625 38.4375 31.042969 Z M 28.125 23.019531 C 28.125 25.105469 28.019531 30.207031 22.917969 30.207031 C 19.792969 30.207031 19.792969 27.082031 19.792969 27.082031 C 19.792969 22.394531 24.167969 21.875 28.125 21.875 Z M 28.125 23.019531 "/>
</g>
</svg>
