<?xml version="1.0" encoding="UTF-8"?>
<svg xmlns="http://www.w3.org/2000/svg" xmlns:xlink="http://www.w3.org/1999/xlink" viewBox="0 0 50 50" width="50px" height="50px">
<g id="surface9342347">
<path style=" stroke:none;fill-rule:nonzero;fill:rgb(13.725491%,13.725491%,27.843139%);fill-opacity:1;" d="M 25.007812 5 C 13.957031 5 5 13.953125 5 25 C 5 36.046875 13.957031 45 25.007812 45 C 41.691406 45 45.449219 29.511719 43.882812 21.667969 L 25 21.667969 L 25 28.332031 L 37.898438 28.332031 C 36.414062 34.082031 31.210938 38.332031 25 38.332031 C 17.636719 38.332031 11.667969 32.363281 11.667969 25 C 11.667969 17.636719 17.636719 11.667969 25 11.667969 C 28.347656 11.667969 31.398438 12.910156 33.742188 14.949219 L 38.476562 10.214844 C 34.917969 6.976562 30.195312 5 25.007812 5 Z M 25.007812 5 "/>
</g>
</svg>
