<?xml version="1.0" encoding="UTF-8"?>
<svg xmlns="http://www.w3.org/2000/svg" xmlns:xlink="http://www.w3.org/1999/xlink" viewBox="0 0 50 50" width="50px" height="50px">
<g id="surface9357661">
<path style=" stroke:none;fill-rule:nonzero;fill:rgb(13.725491%,13.725491%,27.843139%);fill-opacity:1;" d="M 47.300781 21.011719 C 46.71875 19.410156 46 17.851562 45.058594 16.351562 C 44.128906 14.859375 42.949219 13.421875 41.429688 12.21875 C 39.921875 11.03125 37.941406 10.128906 35.839844 9.960938 L 35.058594 9.921875 C 34.789062 9.929688 34.488281 9.929688 34.210938 9.960938 C 33.640625 10.019531 33.101562 10.148438 32.589844 10.300781 C 31.558594 10.621094 30.660156 11.101562 29.871094 11.621094 C 28.449219 12.558594 27.320312 13.648438 26.300781 14.769531 C 26.308594 14.789062 26.328125 14.800781 26.339844 14.820312 L 26.558594 15.101562 C 27.070312 15.769531 28.179688 17.308594 29.171875 18.96875 C 30.398438 17.769531 32 16.320312 32.660156 15.898438 C 33.160156 15.589844 33.648438 15.351562 34.089844 15.21875 C 34.320312 15.160156 34.53125 15.109375 34.730469 15.101562 C 34.828125 15.078125 34.921875 15.089844 35.03125 15.078125 L 35.410156 15.101562 C 36.390625 15.191406 37.351562 15.589844 38.261719 16.289062 C 40.070312 17.730469 41.5 20.179688 42.429688 22.769531 C 43.378906 25.371094 43.921875 28.210938 43.949219 30.949219 C 43.949219 32.261719 43.78125 33.519531 43.378906 34.558594 C 42.988281 35.609375 42 36.011719 40.878906 36.011719 C 39.25 36.011719 38.070312 35.308594 37.121094 34.328125 C 36.078125 33.238281 35.101562 32.019531 34.160156 30.71875 C 33.378906 29.628906 32.621094 28.5 31.898438 27.351562 C 30.628906 25.289062 28.929688 22.679688 27.75 20.5 L 25 16.351562 C 24.691406 15.960938 24.390625 15.570312 24.058594 15.179688 C 22.949219 13.921875 21.71875 12.679688 20.128906 11.621094 C 19.339844 11.101562 18.441406 10.621094 17.410156 10.300781 C 16.898438 10.148438 16.359375 10.019531 15.789062 9.960938 C 15.609375 9.941406 15.429688 9.929688 15.25 9.929688 C 15.140625 9.929688 15.039062 9.921875 14.941406 9.921875 L 14.160156 9.960938 C 12.058594 10.128906 10.078125 11.03125 8.570312 12.21875 C 7.050781 13.421875 5.871094 14.859375 4.941406 16.351562 C 4 17.851562 3.28125 19.410156 2.699219 21.011719 C 1.570312 24.210938 0.960938 27.519531 0.949219 30.941406 C 0.960938 32.71875 1.191406 34.570312 1.910156 36.410156 C 2.609375 38.210938 3.929688 40.121094 6.03125 41.179688 C 7.058594 41.710938 8.230469 41.988281 9.351562 41.988281 C 10.578125 42.019531 11.75 41.671875 12.679688 41.21875 C 14.550781 40.289062 15.839844 39.058594 17.011719 37.820312 C 19.320312 35.308594 21.03125 32.589844 22.609375 29.820312 C 23.050781 29.058594 23.46875 28.28125 23.878906 27.488281 C 23.671875 27.078125 23.460938 26.648438 23.238281 26.199219 C 22.621094 25.171875 21.851562 23.949219 21.289062 23.101562 C 20.460938 24.601562 19.601562 26.058594 18.710938 27.511719 C 17.121094 30.03125 15.410156 32.480469 13.5 34.488281 C 12.550781 35.46875 11.5 36.328125 10.578125 36.738281 C 10.109375 36.941406 9.75 37.011719 9.441406 36.988281 C 9.011719 36.988281 8.648438 36.890625 8.308594 36.710938 C 7.640625 36.359375 7.011719 35.609375 6.621094 34.558594 C 6.21875 33.519531 6.050781 32.261719 6.050781 30.949219 C 6.078125 28.210938 6.621094 25.371094 7.570312 22.769531 C 8.5 20.179688 9.929688 17.730469 11.738281 16.289062 C 12.648438 15.589844 13.609375 15.191406 14.589844 15.101562 L 14.96875 15.078125 C 15.078125 15.089844 15.171875 15.078125 15.269531 15.101562 C 15.46875 15.109375 15.679688 15.160156 15.910156 15.21875 C 16.171875 15.300781 16.449219 15.410156 16.738281 15.558594 C 16.941406 15.660156 17.140625 15.769531 17.339844 15.898438 C 18.339844 16.539062 19.328125 17.480469 20.261719 18.519531 C 20.980469 19.328125 21.671875 20.230469 22.359375 21.148438 L 25 25.238281 C 25.75 26.789062 26.53125 28.328125 27.390625 29.820312 C 28.96875 32.589844 30.679688 35.308594 32.988281 37.820312 C 33.671875 38.550781 34.398438 39.269531 35.261719 39.921875 C 35.871094 40.398438 36.539062 40.828125 37.320312 41.21875 C 38.25 41.671875 39.421875 42.019531 40.648438 41.988281 C 41.769531 41.988281 42.941406 41.710938 43.96875 41.179688 C 46.070312 40.121094 47.390625 38.210938 48.089844 36.410156 C 48.808594 34.570312 49.039062 32.71875 49.050781 30.941406 C 49.039062 27.519531 48.429688 24.210938 47.300781 21.011719 Z M 47.300781 21.011719 "/>
</g>
</svg>
